<svg width="61" height="62" viewBox="0 0 61 62" fill="none" xmlns="http://www.w3.org/2000/svg">
<path d="M55.8441 1H4.55405C2.2556 1 0.392334 2.88951 0.392334 5.22033V56.6164C0.392334 58.9472 2.2556 60.8367 4.55405 60.8367H55.8441C58.1426 60.8367 60.0058 58.9472 60.0058 56.6164V5.22033C60.0058 2.88951 58.1426 1 55.8441 1Z" fill="#1C1B1B" stroke="#262626" stroke-width="0.598705" stroke-miterlimit="10"/>
<path d="M30.5907 21.448L35.6796 35.1275H25.4968L30.5856 21.448H30.5907ZM38.5176 17.353V19.5415H37.1217L38.5176 17.353ZM27.4952 16.371L16.3801 45.0672H22.0252L24.1009 39.5619H37.0857L39.1614 45.0672H44.8065L33.6914 16.371H27.5004H27.4952ZM38.1004 16.3606L36.0453 19.646L36.411 20.4973L38.5227 20.5287V21.6151H39.625V20.5287H40.2945V19.5467H39.625V16.3658H38.1004V16.3606ZM42.7308 16.2822C42.0097 16.2822 41.2371 16.5486 40.7323 17.1388L41.3607 17.8805C41.711 17.5097 42.1591 17.2746 42.7514 17.2746C43.1789 17.2746 43.5909 17.5045 43.5909 17.9589C43.5909 18.6065 42.9677 19.1445 40.8508 20.7376V21.6099H44.7498V20.6279H42.6381C43.9824 19.6355 44.7086 18.8573 44.7086 17.9589C44.7086 16.909 43.833 16.2822 42.7308 16.2822Z" fill="#EBEBEB"/>
</svg>
