<svg width="14" height="14" viewBox="0 0 14 14" fill="none" xmlns="http://www.w3.org/2000/svg">
<path fill-rule="evenodd" clip-rule="evenodd" d="M7 14C10.866 14 14 10.866 14 7C14 3.134 10.866 0 7 0C3.134 0 0 3.134 0 7C0 10.866 3.134 14 7 14ZM10.7918 5.61086C11.1291 5.17357 11.0481 4.54561 10.6108 4.20827C10.1735 3.87093 9.54556 3.95195 9.20822 4.38925L6.06671 8.46158L4.7276 7.04131C4.34872 6.63947 3.71582 6.62086 3.314 6.99973C2.91214 7.3786 2.89352 8.01151 3.2724 8.41333L6.21902 11.5385L10.7918 5.61086Z" fill="#0146F9"/>
</svg>
