<svg width="135" height="46" viewBox="0 0 135 46" fill="none" xmlns="http://www.w3.org/2000/svg">
<mask id="mask0_101_45" style="mask-type:luminance" maskUnits="userSpaceOnUse" x="0" y="0" width="135" height="46">
<path d="M135 0H0V46H135V0Z" fill="white"/>
</mask>
<g mask="url(#mask0_101_45)">
<path d="M55.6845 0.863281V12.9068H52.8053V3.1331H47.1493V12.9068H44.2755V0.863281H55.6845Z" fill="#202020"/>
<path d="M69.0429 8.29169C69.0429 11.1989 66.9503 13.0567 64.2515 13.0567C63.0531 13.0567 62.07 12.694 61.3536 11.9374V16.2438H58.5632V3.651H61.2296V4.71595C61.9272 3.90753 62.9641 3.51367 64.2515 3.51367C66.9503 3.51367 69.0429 5.3715 69.0429 8.29169ZM66.2177 8.29169C66.2177 6.69037 65.1619 5.72648 63.7667 5.72648C62.3715 5.72648 61.3186 6.69037 61.3186 8.29169C61.3186 9.89299 62.3743 10.8543 63.7667 10.8543C65.1591 10.8543 66.2177 9.87744 66.2177 8.29169Z" fill="#202020"/>
<path d="M79.1999 7.62338V12.9067H76.59V11.7536C76.0702 12.5957 75.0711 13.0492 73.6569 13.0492C71.4054 13.0492 70.0614 11.8443 70.0614 10.2456C70.0614 8.64688 71.2599 7.4757 74.193 7.4757H76.4123C76.4123 6.32265 75.6959 5.66191 74.193 5.66191C73.1969 5.65405 72.2249 5.95576 71.4216 6.52217L70.4197 4.6462C71.4754 3.92329 73.0321 3.52943 74.57 3.52943C77.503 3.51389 79.1999 4.8198 79.1999 7.62338ZM76.4123 9.9813V9.03555H74.4973C73.1911 9.03555 72.7816 9.49935 72.7816 10.1186C72.7816 10.7897 73.3714 11.238 74.3545 11.238C75.2838 11.238 76.089 10.8234 76.4123 9.9813Z" fill="#202020"/>
<path d="M85.871 9.39487H84.4221V12.9058H81.6317V3.65039H84.4221V7.25463H85.9167L88.5265 3.66075H91.4893L88.1414 8.08896L91.7371 12.9058H88.4459L85.871 9.39487Z" fill="#202020"/>
<path d="M101.107 5.85284H97.8509V12.9058H95.0742V5.85284H91.8259V3.65039H101.107V5.85284Z" fill="#202020"/>
<path d="M102.591 3.65039H105.363V9.15391L110.049 3.65039H112.605V12.9058H109.833V7.39972L105.166 12.9058H102.591V3.65039Z" fill="#202020"/>
<path d="M119.527 9.39487H118.078V12.9058H115.288V3.65039H118.078V7.25463H119.583L122.193 3.66075H125.156L121.797 8.08896L125.39 12.9058H122.102L119.527 9.39487Z" fill="#202020"/>
<path d="M134.957 7.62338V12.9067H132.347V11.7536C131.827 12.5957 130.828 13.0492 129.414 13.0492C127.162 13.0492 125.821 11.8443 125.821 10.2456C125.821 8.64688 127.017 7.4757 129.95 7.4757H132.169C132.169 6.32265 131.453 5.66191 129.95 5.66191C128.954 5.65405 127.982 5.95576 127.179 6.52217L126.177 4.6462C127.232 3.92329 128.789 3.52943 130.327 3.52943C133.26 3.51389 134.957 4.8198 134.957 7.62338ZM132.169 9.9813V9.03555H130.254C128.948 9.03555 128.539 9.49935 128.539 10.1186C128.539 10.7897 129.129 11.238 130.112 11.238C131.041 11.238 131.846 10.8234 132.169 9.9813Z" fill="#202020"/>
<path d="M55.6845 20.1875V32.2284H52.8053V22.4574H47.1493V32.2284H44.2755V20.1875H55.6845Z" fill="#202020"/>
<path d="M69.0429 27.6001C69.0429 30.5073 66.9503 32.3677 64.2515 32.3677C63.0531 32.3677 62.07 32.0049 61.3536 31.2483V35.5676H58.5632V22.9723H61.2296V24.0398C61.9244 23.2315 62.9641 22.835 64.2515 22.835C66.9503 22.835 69.0429 24.6928 69.0429 27.6001ZM66.2177 27.6001C66.2177 26.0014 65.1619 25.0374 63.7667 25.0374C62.3715 25.0374 61.3186 26.0014 61.3186 27.6001C61.3186 29.1987 62.3715 30.1652 63.7667 30.1652C65.1619 30.1652 66.2177 29.2013 66.2177 27.6001Z" fill="#202020"/>
<path d="M70.2045 27.6001C70.2045 24.8145 72.4398 22.835 75.4995 22.835C78.5591 22.835 80.7729 24.8145 80.7729 27.6001C80.7729 30.3855 78.5564 32.3677 75.4995 32.3677C72.4426 32.3677 70.2045 30.3881 70.2045 27.6001ZM77.9477 27.6001C77.9477 26.0014 76.8946 25.0374 75.4995 25.0374C74.1043 25.0374 73.0296 26.0014 73.0296 27.6001C73.0296 29.1987 74.1071 30.1652 75.4995 30.1652C76.8919 30.1652 77.9477 29.2013 77.9477 27.6001Z" fill="#202020"/>
<path d="M93.3289 30.0281V34.2257H90.7353V32.228H83.975V34.2257H81.3813V30.0281H81.7746C83.0998 29.992 83.3313 28.1859 83.4391 26.1726L83.5629 22.9727H91.95V30.0281H93.3289ZM85.1008 30.0281H89.1489V25.1749H86.0139L85.96 26.3618C85.9169 27.9294 85.7822 29.339 85.1089 30.0281H85.1008Z" fill="#202020"/>
<path d="M103.447 26.9479V32.2286H100.838V31.0782C100.318 31.9202 99.3187 32.3737 97.9047 32.3737C95.653 32.3737 94.3118 31.1688 94.3118 29.5675C94.3118 27.9663 95.5076 26.7976 98.4406 26.7976H100.66C100.66 25.6447 99.9435 24.9839 98.4406 24.9839C97.445 24.9763 96.4735 25.277 95.6692 25.8415L94.6673 23.9681C95.723 23.2453 97.2797 22.8487 98.8176 22.8487C101.751 22.8359 103.447 24.1443 103.447 26.9479ZM100.66 29.3058V28.3601H98.7449C97.4387 28.3601 97.0294 28.8239 97.0294 29.4432C97.0294 30.1143 97.6192 30.56 98.6021 30.56C99.5314 30.56 100.337 30.148 100.66 29.3058Z" fill="#202020"/>
<path d="M115.412 28.7197H114.065V32.228H111.318V28.7197H109.971L107.932 32.228H104.647L107.668 27.4475L104.862 22.9727H107.825L109.952 26.569H111.331V22.9727H114.084V26.569H115.444L117.599 22.9727H120.526L117.72 27.4475L120.761 32.228H117.451L115.412 28.7197Z" fill="#202020"/>
<path d="M30.914 0H4.84259C2.1681 0 0 2.08582 0 4.65881V29.7407C0 32.3138 2.1681 34.3995 4.84259 34.3995H30.914C33.5884 34.3995 35.7566 32.3138 35.7566 29.7407V4.65881C35.7566 2.08582 33.5884 0 30.914 0Z" fill="#00A6F7"/>
<path d="M30.9735 0H4.89406C3.79725 0.00264063 2.73486 0.36865 1.88563 1.03645C1.82637 1.72741 1.79675 2.42702 1.79675 3.13524C1.79675 17.2076 13.4669 28.6163 27.86 28.6163C30.564 28.6147 33.2509 28.203 35.8214 27.3957V4.73397C35.828 3.48863 35.3216 2.29151 34.4132 1.40437C33.5045 0.517246 32.268 0.0123146 30.9735 0Z" fill="url(#paint0_linear_101_45)"/>
<path d="M9.3644 21.0947V10.624C9.3644 10.3388 9.48216 10.0653 9.69176 9.86361C9.90138 9.66195 10.1857 9.54867 10.4821 9.54867H18.6214C18.9177 9.54934 19.2021 9.66277 19.4119 9.8642C19.6217 10.0656 19.7403 10.3388 19.7417 10.624V21.0947H22.6721V10.624C22.6686 9.59422 22.2417 8.6076 21.4848 7.87945C20.7281 7.15131 19.7026 6.74071 18.6321 6.7373H10.4821C9.41066 6.7373 8.38307 7.14679 7.62542 7.87568C6.86778 8.60458 6.44214 9.59316 6.44214 10.624V21.0947H9.3644Z" fill="white"/>
<path d="M26.3943 13.3076V23.7886C26.3955 23.9306 26.3674 24.0715 26.3117 24.2029C26.256 24.3344 26.1739 24.454 26.07 24.555C25.9662 24.6559 25.8426 24.7359 25.7065 24.7907C25.5703 24.8456 25.4243 24.8739 25.2767 24.8743H17.1374C16.8403 24.8743 16.5553 24.7608 16.3452 24.5587C16.135 24.3565 16.017 24.0822 16.017 23.7964V13.3076H13.0867V23.7886C13.0909 24.8182 13.5179 25.8045 14.2747 26.5323C15.0314 27.2604 16.0565 27.6713 17.1267 27.6753H25.2767C26.347 27.672 27.3726 27.2613 28.1295 26.5332C28.8864 25.805 29.3131 24.8184 29.3167 23.7886V13.3076H26.3943Z" fill="white"/>
<path d="M1.853 43.6914H0.743357V45.9429H0V40.8281H0.743357V43.0487H1.86917L3.53902 40.8281H4.34702L2.46169 43.3052L4.44936 45.9429H3.57672L1.853 43.6914Z" fill="#202020"/>
<path d="M5.07397 43.3855C5.07397 41.8879 6.27251 40.7686 7.90735 40.7686C9.5422 40.7686 10.7246 41.8802 10.7246 43.3855C10.7246 44.8909 9.52334 45.9999 7.90735 45.9999C6.29135 45.9999 5.07397 44.8833 5.07397 43.3855ZM9.96504 43.3855C9.97177 43.1244 9.92304 42.8647 9.82185 42.6224C9.72065 42.3799 9.5691 42.16 9.37647 41.9758C9.18385 41.7918 8.95422 41.6474 8.70161 41.5516C8.44899 41.456 8.17873 41.4107 7.90735 41.419C7.63284 41.4093 7.35913 41.453 7.10256 41.5474C6.84601 41.6419 6.61187 41.7852 6.41415 41.9687C6.21641 42.152 6.05913 42.372 5.95172 42.6151C5.8443 42.8584 5.78892 43.1199 5.78892 43.3843C5.78892 43.6486 5.8443 43.91 5.95172 44.1534C6.05913 44.3965 6.21641 44.6165 6.41415 44.8C6.61187 44.9834 6.84601 45.1266 7.10256 45.221C7.35913 45.3155 7.63284 45.3592 7.90735 45.3497C8.17849 45.3578 8.44854 45.3127 8.70096 45.2171C8.95339 45.1214 9.18291 44.9774 9.37547 44.7936C9.56806 44.6097 9.71966 44.3901 9.82103 44.148C9.92241 43.9059 9.97141 43.6465 9.96504 43.3855Z" fill="#202020"/>
<path d="M16.8306 40.8281V45.9404H16.0711V43.6628H13.0195V45.9404H12.26V40.8281H13.0195V43.028H16.0711V40.8307L16.8306 40.8281Z" fill="#202020"/>
<path d="M18.3578 43.3859C18.3578 41.8725 19.559 40.7687 21.1749 40.7687C21.5516 40.7538 21.9269 40.8175 22.2757 40.9553C22.6243 41.093 22.938 41.3017 23.1949 41.5668L22.7021 42.0254C22.5121 41.8278 22.2805 41.6714 22.0228 41.5668C21.765 41.4624 21.4869 41.4119 21.2073 41.4191C20.9328 41.4096 20.659 41.4534 20.4024 41.5478C20.1459 41.6422 19.9118 41.7854 19.714 41.9689C19.5162 42.1524 19.359 42.3721 19.2516 42.6155C19.1442 42.8586 19.0888 43.1203 19.0888 43.3845C19.0888 43.6487 19.1442 43.9104 19.2516 44.1535C19.359 44.3968 19.5162 44.6166 19.714 44.8001C19.9118 44.9836 20.1459 45.1268 20.4024 45.2212C20.659 45.3158 20.9328 45.3594 21.2073 45.3499C21.4874 45.3556 21.7657 45.3039 22.0235 45.1979C22.2812 45.092 22.5126 44.9345 22.7021 44.7358L23.1949 45.197C22.9368 45.4631 22.6219 45.6727 22.2719 45.8113C21.9219 45.9499 21.545 46.0144 21.1669 46.0003C19.559 46.0003 18.3578 44.8964 18.3578 43.3859Z" fill="#202020"/>
<path d="M27.8736 44.6631H25.0483L24.4639 45.9404H23.6827L26.0907 40.8281H26.8421L29.266 45.9404H28.4581L27.8736 44.6631ZM27.6043 44.0774L26.4569 41.5717L25.3176 44.0774H27.6043Z" fill="#202020"/>
<path d="M34.8462 40.8281V45.9404H34.1029V41.4578H31.749L31.695 42.9554C31.6278 44.9868 31.3019 45.9948 30.2514 45.9948C30.0905 45.995 29.9303 45.9749 29.7747 45.9352L29.8286 45.2849C29.9074 45.3062 29.9891 45.3168 30.071 45.3159C30.7309 45.3159 30.9598 44.5619 31.019 42.9839L31.1026 40.8307L34.8462 40.8281Z" fill="#202020"/>
<path d="M40.4592 41.4581H38.6385V45.9407H37.8925V41.4581H36.0906V40.8232H40.4726L40.4592 41.4581Z" fill="#202020"/>
<path d="M41.6903 40.8281H42.4444V44.7718L45.5875 40.8281H46.2851V45.9404H45.5417V42.002L42.3905 45.9404H41.6903V40.8281Z" fill="#202020"/>
<path d="M52.8183 40.8252V45.94H52.0588V43.6599H49.0181V45.94H48.2584V40.8278H49.0181V43.0251H52.0722V40.8252H52.8183Z" fill="#202020"/>
<path d="M58.2565 41.4574H55.5229V45.9348H54.7714V40.8252H58.2727L58.2565 41.4574Z" fill="#202020"/>
<path d="M58.364 43.3829C58.364 41.8854 59.5626 40.7686 61.1947 40.7686C62.8269 40.7686 64.0119 41.8776 64.0119 43.3829C64.0119 44.8883 62.8135 45.9999 61.1947 45.9999C59.5761 45.9999 58.364 44.8807 58.364 43.3829ZM63.2525 43.3829C63.2568 42.9887 63.139 42.6022 62.9142 42.2724C62.6895 41.9428 62.368 41.6848 61.9904 41.5314C61.6128 41.378 61.1964 41.3361 60.794 41.4112C60.3916 41.4861 60.0216 41.6745 59.7309 41.9523C59.44 42.2302 59.2418 42.585 59.1613 42.9715C59.0807 43.3582 59.1216 43.7591 59.2785 44.1233C59.4354 44.4875 59.7014 44.7986 60.0426 45.017C60.3838 45.2354 60.7849 45.3511 61.1947 45.3497C61.4661 45.3578 61.7364 45.3127 61.989 45.2169C62.2416 45.1211 62.4713 44.9767 62.6638 44.7927C62.8564 44.6085 63.008 44.3885 63.1092 44.1463C63.2104 43.9038 63.2592 43.6441 63.2525 43.3829Z" fill="#202020"/>
<path d="M69.9536 44.5434C69.9536 45.4217 69.2857 45.94 67.9795 45.94H65.5555V40.8252H67.8421C68.9976 40.8252 69.6952 41.2864 69.6952 42.1414C69.7042 42.393 69.6285 42.6405 69.4795 42.8473C69.3305 43.0541 69.1162 43.2091 68.8683 43.2893C69.574 43.4551 69.9536 43.88 69.9536 44.5434ZM66.2988 43.0768H67.7802C68.51 43.0768 68.9195 42.7918 68.9195 42.2425C68.9195 41.6931 68.51 41.403 67.7802 41.403H66.2988V43.0768ZM69.1861 44.4863C69.1861 43.8956 68.7605 43.6314 67.9633 43.6314H66.2988V45.3622H67.9633C68.7605 45.3622 69.1861 45.085 69.1861 44.4863Z" fill="#202020"/>
<path d="M74.9819 44.6626H72.1566L71.5722 45.94H70.7885L73.1962 40.8252H73.9478L76.3717 45.94H75.5636L74.9819 44.6626ZM74.7126 44.077L73.5652 41.5714L72.4179 44.077H74.7126Z" fill="#202020"/>
<path d="M81.2336 40.8252V45.94H80.4875V44.4502H79.0224C78.9543 44.454 78.8858 44.454 78.8177 44.4502L77.7539 45.9478H76.9458L78.1229 44.3257C77.7622 44.2181 77.4499 43.9968 77.2363 43.6973C77.0227 43.3977 76.9205 43.0377 76.9458 42.6752C76.9458 41.5067 77.7889 40.833 79.1005 40.833L81.2336 40.8252ZM79.0789 43.8361H80.4822V41.4574H79.1355C78.2306 41.4574 77.7215 41.8642 77.7215 42.6545C77.7215 43.4448 78.1794 43.8361 79.0844 43.8361H79.0789Z" fill="#202020"/>
<path d="M87.3933 43.6884H86.2836V45.94H85.5402V40.8252H86.2836V43.0458H87.4067L89.0793 40.8252H89.8872L88.0019 43.3023L89.9896 45.94H89.125L87.3933 43.6884Z" fill="#202020"/>
<path d="M90.6141 43.3829C90.6141 41.8854 91.8126 40.7686 93.4448 40.7686C95.0769 40.7686 96.2621 41.8776 96.2621 43.3829C96.2621 44.8883 95.0743 45.9973 93.4583 45.9973C91.8422 45.9973 90.6141 44.8807 90.6141 43.3829ZM95.5026 43.3829C95.5079 42.988 95.3907 42.6004 95.166 42.2698C94.9414 41.9391 94.6193 41.6803 94.241 41.5265C93.8629 41.3728 93.4455 41.3309 93.0424 41.4063C92.6395 41.4817 92.2688 41.6711 91.9781 41.95C91.6874 42.229 91.4897 42.585 91.4102 42.9726C91.3307 43.3601 91.3731 43.7617 91.5319 44.126C91.6909 44.4902 91.959 44.8008 92.3021 45.0179C92.6452 45.2349 93.0478 45.3485 93.4583 45.3445C93.7283 45.3513 93.9967 45.3051 94.2476 45.2089C94.4984 45.1128 94.7262 44.9687 94.9174 44.7853C95.1086 44.6018 95.259 44.383 95.3597 44.1419C95.4602 43.9009 95.5088 43.6427 95.5026 43.3829Z" fill="#202020"/>
<path d="M102.725 45.94V42.214L100.803 45.3233H100.46L98.5267 42.2348V45.94H97.7994V40.8252H98.4243L100.641 44.4191L102.828 40.8252H103.45V45.94H102.725Z" fill="#202020"/>
<path d="M109.995 40.8252V45.94H109.252V41.4574H106.168V45.94H105.417V40.8252H109.995Z" fill="#202020"/>
<path d="M115.412 44.66H112.581L111.996 45.94H111.234L113.639 40.8252H114.393L116.817 45.94H116.009L115.412 44.66ZM115.142 44.077L113.998 41.5688L112.85 44.077H115.142Z" fill="#202020"/>
<path d="M122.589 40.8252V45.9374H121.83V43.6599H118.775V45.9374H118.016V40.8252H118.775V43.0251H121.827V40.8252H122.589Z" fill="#202020"/>
<path d="M124.55 40.8252H125.302V44.7689L128.445 40.8252H129.145V45.9374H128.399V42.0015L125.24 45.9374H124.542L124.55 40.8252Z" fill="#202020"/>
<path d="M135 40.8252V45.9374H134.257V44.4476H132.781C132.712 44.4514 132.642 44.4514 132.573 44.4476L131.512 45.9452H130.704L131.881 44.3231C131.52 44.2155 131.208 43.9942 130.995 43.6947C130.781 43.3951 130.679 43.0351 130.704 42.6726C130.704 41.5041 131.547 40.833 132.859 40.833L135 40.8252ZM132.845 43.8335H134.251V41.4574H132.891C131.989 41.4574 131.48 41.8668 131.48 42.6545C131.48 43.4422 131.948 43.8335 132.851 43.8335H132.845Z" fill="#202020"/>
</g>
<defs>
<linearGradient id="paint0_linear_101_45" x1="6.58279" y1="-3.48245" x2="36.0606" y2="27.1555" gradientUnits="userSpaceOnUse">
<stop offset="0.01" stop-color="#00CBF7"/>
<stop offset="0.24" stop-color="#049FF7"/>
<stop offset="0.58" stop-color="#0F8AF7"/>
<stop offset="0.99" stop-color="#2269F8"/>
<stop offset="1" stop-color="#2268F8"/>
</linearGradient>
</defs>
</svg>
