<svg width="162" height="126" viewBox="0 0 162 126" fill="none" xmlns="http://www.w3.org/2000/svg">
<g filter="url(#filter0_d_105_1193)">
<mask id="path-1-outside-1_105_1193" maskUnits="userSpaceOnUse" x="5.96289" y="5.84961" width="150" height="114" fill="black">
<rect fill="white" x="5.96289" y="5.84961" width="150" height="114"/>
<path d="M53.5322 117.66C44.7818 117.66 36.9869 115.498 30.1476 111.173C23.3082 106.848 17.9272 100.612 14.0046 92.4649C10.1826 84.2175 8.27158 74.411 8.27158 63.0455C8.27158 51.6801 10.1826 41.9239 14.0046 33.777C17.9272 25.5295 23.3082 19.2433 30.1476 14.9184C36.9869 10.5935 44.7818 8.43104 53.5322 8.43104C62.2826 8.43104 70.0775 10.5935 76.9169 14.9184C83.7563 19.2433 89.087 25.5295 92.909 33.777C96.8316 41.9239 98.7929 51.6801 98.7929 63.0455C98.7929 74.411 96.8316 84.2175 92.909 92.4649C89.087 100.612 83.7563 106.848 76.9169 111.173C70.0775 115.498 62.2826 117.66 53.5322 117.66ZM53.5322 96.991C59.9693 96.991 64.9982 94.2251 68.6191 88.6932C72.3405 83.1614 74.2012 74.6121 74.2012 63.0455C74.2012 51.4789 72.3405 42.9297 68.6191 37.3978C64.9982 31.866 59.9693 29.1001 53.5322 29.1001C47.1957 29.1001 42.1668 31.866 38.4453 37.3978C34.8245 42.9297 33.0141 51.4789 33.0141 63.0455C33.0141 74.6121 34.8245 83.1614 38.4453 88.6932C42.1668 94.2251 47.1957 96.991 53.5322 96.991ZM153.536 10.2415V115.85H129.095V29.8544H107.973V10.2415H153.536Z"/>
</mask>
<path d="M30.1476 111.173L31.2116 109.49L30.1476 111.173ZM14.0046 92.465L12.1982 93.3021L12.2044 93.3154L12.2108 93.3286L14.0046 92.465ZM14.0046 33.777L12.2066 32.9219L12.2021 32.9314L14.0046 33.777ZM30.1476 14.9184L31.2116 16.6011L30.1476 14.9184ZM76.9169 14.9184L75.8528 16.6011V16.6011L76.9169 14.9184ZM92.909 33.777L91.1026 34.6141L91.1087 34.6274L91.1151 34.6407L92.909 33.777ZM92.909 92.465L91.111 91.6098L91.1065 91.6194L92.909 92.465ZM76.9169 111.173L75.8528 109.49L76.9169 111.173ZM68.6191 88.6932L66.9672 87.5819L66.9602 87.5924L66.9533 87.6029L68.6191 88.6932ZM68.6191 37.3978L66.9533 38.4882L66.9602 38.4987L66.9672 38.5091L68.6191 37.3978ZM38.4453 37.3978L36.7934 36.2865L36.7864 36.297L36.7795 36.3075L38.4453 37.3978ZM38.4453 88.6932L36.7795 89.7836L36.7864 89.7941L36.7934 89.8045L38.4453 88.6932ZM53.5322 115.669C45.1266 115.669 37.7067 113.597 31.2116 109.49L29.0835 112.855C36.2672 117.398 44.437 119.651 53.5322 119.651V115.669ZM31.2116 109.49C24.7234 105.387 19.5788 99.4528 15.7984 91.6013L12.2108 93.3286C16.2755 101.771 21.8929 108.308 29.0835 112.855L31.2116 109.49ZM15.811 91.6278C12.137 83.6998 10.2625 74.1922 10.2625 63.0455H6.28064C6.28064 74.6298 8.22816 84.7351 12.1982 93.3021L15.811 91.6278ZM10.2625 63.0455C10.2625 51.8979 12.1373 42.4448 15.807 34.6226L12.2021 32.9314C8.22783 41.403 6.28064 51.4623 6.28064 63.0455H10.2625ZM15.8025 34.6321C19.5849 26.6794 24.7297 20.7 31.2116 16.6011L29.0835 13.2357C21.8866 17.7866 16.2694 24.3796 12.2066 32.9219L15.8025 34.6321ZM31.2116 16.6011C37.7067 12.4939 45.1266 10.422 53.5322 10.422V6.4401C44.437 6.4401 36.2672 8.69304 29.0835 13.2357L31.2116 16.6011ZM53.5322 10.422C61.9378 10.422 69.3577 12.4939 75.8528 16.6011L77.9809 13.2357C70.7972 8.69304 62.6274 6.4401 53.5322 6.4401V10.422ZM75.8528 16.6011C82.3297 20.6968 87.4211 26.6698 91.1026 34.6141L94.7154 32.9399C90.7529 24.3892 85.1828 17.7898 77.9809 13.2357L75.8528 16.6011ZM91.1151 34.6407C94.8791 42.4581 96.8019 51.9044 96.8019 63.0455H100.784C100.784 51.4558 98.7841 41.3897 94.7028 32.9133L91.1151 34.6407ZM96.8019 63.0455C96.8019 74.1857 94.8794 83.6866 91.111 91.6098L94.7069 93.3201C98.7837 84.7483 100.784 74.6363 100.784 63.0455H96.8019ZM91.1065 91.6194C87.4271 99.4623 82.336 105.39 75.8528 109.49L77.9809 112.855C85.1765 108.305 90.7468 101.761 94.7114 93.3105L91.1065 91.6194ZM75.8528 109.49C69.3577 113.597 61.9378 115.669 53.5322 115.669V119.651C62.6274 119.651 70.7972 117.398 77.9809 112.855L75.8528 109.49ZM53.5322 98.9819C60.6626 98.9819 66.3083 95.859 70.2849 89.7836L66.9533 87.6029C63.6882 92.5911 59.276 95.0001 53.5322 95.0001V98.9819ZM70.271 89.8045C74.323 83.7813 76.1922 74.7509 76.1922 63.0455H72.2103C72.2103 74.4734 70.358 82.5415 66.9672 87.5819L70.271 89.8045ZM76.1922 63.0455C76.1922 51.3402 74.323 42.3098 70.271 36.2865L66.9672 38.5091C70.358 43.5496 72.2103 51.6177 72.2103 63.0455H76.1922ZM70.2849 36.3075C66.3083 30.232 60.6626 27.1091 53.5322 27.1091V31.091C59.276 31.091 63.6882 33.4999 66.9533 38.4882L70.2849 36.3075ZM53.5322 27.1091C46.4928 27.1091 40.8617 30.239 36.7934 36.2865L40.0973 38.5091C43.4718 33.4929 47.8987 31.091 53.5322 31.091V27.1091ZM36.7795 36.3075C32.8404 42.3256 31.0231 51.3465 31.0231 63.0455H35.005C35.005 51.6113 36.8086 43.5338 40.1112 38.4882L36.7795 36.3075ZM31.0231 63.0455C31.0231 74.7445 32.8404 83.7654 36.7795 89.7836L40.1112 87.6029C36.8086 82.5573 35.005 74.4797 35.005 63.0455H31.0231ZM36.7934 89.8045C40.8617 95.8521 46.4928 98.9819 53.5322 98.9819V95.0001C47.8987 95.0001 43.4718 92.5981 40.0973 87.5819L36.7934 89.8045ZM153.536 10.2415H155.527V8.25052H153.536V10.2415ZM153.536 115.85V117.841H155.527V115.85H153.536ZM129.095 115.85H127.104V117.841H129.095V115.85ZM129.095 29.8544H131.086V27.8635H129.095V29.8544ZM107.973 29.8544H105.982V31.8453H107.973V29.8544ZM107.973 10.2415V8.25052H105.982V10.2415H107.973ZM151.545 10.2415V115.85H155.527V10.2415H151.545ZM153.536 113.859H129.095V117.841H153.536V113.859ZM131.086 115.85V29.8544H127.104V115.85H131.086ZM129.095 27.8635H107.973V31.8453H129.095V27.8635ZM109.964 29.8544V10.2415H105.982V29.8544H109.964ZM107.973 12.2324H153.536V8.25052H107.973V12.2324Z" fill="#0146F9" mask="url(#path-1-outside-1_105_1193)"/>
</g>
<defs>
<filter id="filter0_d_105_1193" x="0.0131812" y="0.467893" width="161.486" height="125.156" filterUnits="userSpaceOnUse" color-interpolation-filters="sRGB">
<feFlood flood-opacity="0" result="BackgroundImageFix"/>
<feColorMatrix in="SourceAlpha" type="matrix" values="0 0 0 0 0 0 0 0 0 0 0 0 0 0 0 0 0 0 127 0" result="hardAlpha"/>
<feOffset/>
<feGaussianBlur stdDeviation="3.98187"/>
<feComposite in2="hardAlpha" operator="out"/>
<feColorMatrix type="matrix" values="0 0 0 0 0.00392157 0 0 0 0 0.27451 0 0 0 0 0.976471 0 0 0 1 0"/>
<feBlend mode="normal" in2="BackgroundImageFix" result="effect1_dropShadow_105_1193"/>
<feBlend mode="normal" in="SourceGraphic" in2="effect1_dropShadow_105_1193" result="shape"/>
</filter>
</defs>
</svg>
