<svg width="200" height="127" viewBox="0 0 200 127" fill="none" xmlns="http://www.w3.org/2000/svg">
<g filter="url(#filter0_d_105_1200)">
<mask id="path-1-outside-1_105_1200" maskUnits="userSpaceOnUse" x="5.60742" y="6.36328" width="188" height="114" fill="black">
<rect fill="white" x="5.60742" y="6.36328" width="188" height="114"/>
<path d="M53.2333 118.174C44.4829 118.174 36.688 116.011 29.8486 111.686C23.0092 107.361 17.6282 101.126 13.7056 92.9786C9.88363 84.7311 7.97263 74.9247 7.97263 63.5592C7.97263 52.1938 9.88363 42.4376 13.7056 34.2907C17.6282 26.0432 23.0092 19.757 29.8486 15.4321C36.688 11.1072 44.4829 8.94471 53.2333 8.94471C61.9837 8.94471 69.7785 11.1072 76.6179 15.4321C83.4573 19.757 88.788 26.0432 92.61 34.2907C96.5326 42.4376 98.4939 52.1938 98.4939 63.5592C98.4939 74.9247 96.5326 84.7311 92.61 92.9786C88.788 101.126 83.4573 107.361 76.6179 111.686C69.7785 116.011 61.9837 118.174 53.2333 118.174ZM53.2333 97.5047C59.6703 97.5047 64.6993 94.7388 68.3201 89.2069C72.0416 83.675 73.9023 75.1258 73.9023 63.5592C73.9023 51.9926 72.0416 43.4434 68.3201 37.9115C64.6993 32.3797 59.6703 29.6137 53.2333 29.6137C46.8968 29.6137 41.8678 32.3797 38.1464 37.9115C34.5255 43.4434 32.7151 51.9926 32.7151 63.5592C32.7151 75.1258 34.5255 83.675 38.1464 89.2069C41.8678 94.7388 46.8968 97.5047 53.2333 97.5047ZM191.407 96.4486V116.363H111.597V100.522L152.332 62.0505C156.657 57.9268 159.573 54.4065 161.082 51.4897C162.591 48.4723 163.345 45.5052 163.345 42.5884C163.345 38.3641 161.887 35.1456 158.97 32.9328C156.154 30.6195 151.98 29.4629 146.448 29.4629C141.821 29.4629 137.647 30.3681 133.926 32.1785C130.204 33.8883 127.086 36.5034 124.572 40.0237L106.769 28.5577C110.893 22.4223 116.576 17.6448 123.817 14.2251C131.059 10.7048 139.357 8.94471 148.711 8.94471C156.556 8.94471 163.395 10.2522 169.229 12.8673C175.163 15.3818 179.739 19.0026 182.958 23.7299C186.277 28.3565 187.937 33.8381 187.937 40.1746C187.937 45.9076 186.73 51.2885 184.316 56.3175C181.902 61.3465 177.225 67.0795 170.285 73.5165L145.995 96.4486H191.407Z"/>
</mask>
<path d="M29.8486 111.686L30.9127 110.004L29.8486 111.686ZM13.7056 92.9786L11.8992 93.8157L11.9054 93.8291L11.9118 93.8423L13.7056 92.9786ZM13.7056 34.2907L11.9077 33.4355L11.9032 33.4451L13.7056 34.2907ZM29.8486 15.4321L30.9127 17.1148H30.9127L29.8486 15.4321ZM76.6179 15.4321L75.5538 17.1148V17.1148L76.6179 15.4321ZM92.61 34.2907L90.8036 35.1278L90.8098 35.1411L90.8162 35.1544L92.61 34.2907ZM92.61 92.9786L90.812 92.1235L90.8076 92.133L92.61 92.9786ZM76.6179 111.686L75.5538 110.004L76.6179 111.686ZM68.3201 89.2069L66.6682 88.0956L66.6612 88.106L66.6543 88.1165L68.3201 89.2069ZM68.3201 37.9115L66.6543 39.0019L66.6612 39.0124L66.6682 39.0228L68.3201 37.9115ZM38.1464 37.9115L36.4945 36.8002L36.4874 36.8106L36.4806 36.8212L38.1464 37.9115ZM38.1464 89.2069L36.4806 90.2973L36.4874 90.3078L36.4945 90.3182L38.1464 89.2069ZM53.2333 116.183C44.8277 116.183 37.4077 114.111 30.9127 110.004L28.7845 113.369C35.9682 117.912 44.1381 120.165 53.2333 120.165V116.183ZM30.9127 110.004C24.4245 105.901 19.2799 99.9665 15.4995 92.1149L11.9118 93.8423C15.9766 102.285 21.5939 108.822 28.7845 113.369L30.9127 110.004ZM15.512 92.1415C11.8381 84.2134 9.96356 74.7059 9.96356 63.5592H5.98169C5.98169 75.1434 7.92921 85.2488 11.8992 93.8157L15.512 92.1415ZM9.96356 63.5592C9.96356 52.4115 11.8384 42.9585 15.5081 35.1363L11.9032 33.4451C7.92887 41.9167 5.98169 51.976 5.98169 63.5592H9.96356ZM15.5036 35.1458C19.286 27.193 24.4307 21.2137 30.9127 17.1148L28.7845 13.7493C21.5877 18.3003 15.9705 24.8933 11.9077 33.4355L15.5036 35.1458ZM30.9127 17.1148C37.4077 13.0076 44.8277 10.9356 53.2333 10.9356V6.95377C44.1381 6.95377 35.9682 9.20671 28.7845 13.7493L30.9127 17.1148ZM53.2333 10.9356C61.6388 10.9356 69.0588 13.0076 75.5538 17.1148L77.682 13.7493C70.4983 9.20671 62.3285 6.95377 53.2333 6.95377V10.9356ZM75.5538 17.1148C82.0308 21.2105 87.1221 27.1835 90.8036 35.1278L94.4164 33.4536C90.4539 24.9029 84.8838 18.3034 77.682 13.7493L75.5538 17.1148ZM90.8162 35.1544C94.5801 42.9717 96.503 52.4181 96.503 63.5592H100.485C100.485 51.9695 98.4851 41.9034 94.4038 33.427L90.8162 35.1544ZM96.503 63.5592C96.503 74.6993 94.5804 84.2003 90.8121 92.1235L94.408 93.8337C98.4848 85.262 100.485 75.15 100.485 63.5592H96.503ZM90.8076 92.133C87.1281 99.976 82.0371 105.904 75.5538 110.004L77.682 113.369C84.8775 108.819 90.4479 102.275 94.4125 93.8242L90.8076 92.133ZM75.5538 110.004C69.0588 114.111 61.6388 116.183 53.2333 116.183V120.165C62.3285 120.165 70.4983 117.912 77.682 113.369L75.5538 110.004ZM53.2333 99.4956C60.3636 99.4956 66.0093 96.3727 69.986 90.2973L66.6543 88.1165C63.3893 93.1048 58.977 95.5137 53.2333 95.5137V99.4956ZM69.9721 90.3182C74.0241 84.295 75.8932 75.2646 75.8932 63.5592H71.9113C71.9113 74.9871 70.0591 83.0551 66.6682 88.0956L69.9721 90.3182ZM75.8932 63.5592C75.8932 51.8539 74.0241 42.8235 69.9721 36.8002L66.6682 39.0228C70.0591 44.0633 71.9113 52.1313 71.9113 63.5592H75.8932ZM69.986 36.8212C66.0093 30.7457 60.3636 27.6228 53.2333 27.6228V31.6047C58.977 31.6047 63.3893 34.0136 66.6543 39.0019L69.986 36.8212ZM53.2333 27.6228C46.1939 27.6228 40.5628 30.7527 36.4945 36.8002L39.7983 39.0228C43.1728 34.0066 47.5997 31.6047 53.2333 31.6047V27.6228ZM36.4806 36.8212C32.5414 42.8393 30.7242 51.8602 30.7242 63.5592H34.706C34.706 52.125 36.5097 44.0474 39.8122 39.0019L36.4806 36.8212ZM30.7242 63.5592C30.7242 75.2582 32.5414 84.2791 36.4806 90.2973L39.8122 88.1165C36.5097 83.071 34.706 74.9934 34.706 63.5592H30.7242ZM36.4945 90.3182C40.5628 96.3657 46.1939 99.4956 53.2333 99.4956V95.5137C47.5997 95.5137 43.1728 93.1118 39.7983 88.0956L36.4945 90.3182ZM191.407 96.4486H193.398V94.4577H191.407V96.4486ZM191.407 116.363V118.354H193.398V116.363H191.407ZM111.597 116.363H109.606V118.354H111.597V116.363ZM111.597 100.522L110.23 99.0746L109.606 99.6639V100.522H111.597ZM152.332 62.0505L153.699 63.498L153.706 63.4914L152.332 62.0505ZM161.082 51.4897L162.85 52.4044L162.857 52.3923L162.863 52.3801L161.082 51.4897ZM158.97 32.9328L157.706 34.4713L157.736 34.4957L157.767 34.519L158.97 32.9328ZM133.926 32.1785L134.757 33.9876L134.777 33.9784L134.797 33.9688L133.926 32.1785ZM124.572 40.0237L123.494 41.6975L125.089 42.7249L126.192 41.1809L124.572 40.0237ZM106.769 28.5577L105.117 27.447L103.984 29.1321L105.691 30.2315L106.769 28.5577ZM123.817 14.2251L124.668 16.0254L124.678 16.0206L124.688 16.0157L123.817 14.2251ZM169.229 12.8673L168.415 14.684L168.433 14.6924L168.452 14.7005L169.229 12.8673ZM182.958 23.7299L181.312 24.8503L181.326 24.8705L181.34 24.8904L182.958 23.7299ZM184.316 56.3175L186.111 57.179L184.316 56.3175ZM170.285 73.5165L168.931 72.0568L168.925 72.0628L168.918 72.0689L170.285 73.5165ZM145.995 96.4486L144.628 95.0009L140.986 98.4395H145.995V96.4486ZM189.416 96.4486V116.363H193.398V96.4486H189.416ZM191.407 114.372H111.597V118.354H191.407V114.372ZM113.588 116.363V100.522H109.606V116.363H113.588ZM112.964 101.969L153.699 63.498L150.965 60.6031L110.23 99.0746L112.964 101.969ZM153.706 63.4914C158.082 59.3188 161.189 55.6166 162.85 52.4044L159.314 50.575C157.958 53.1964 155.231 56.5347 150.958 60.6096L153.706 63.4914ZM162.863 52.3801C164.488 49.1296 165.336 45.8594 165.336 42.5884H161.354C161.354 45.1511 160.693 47.8151 159.301 50.5993L162.863 52.3801ZM165.336 42.5884C165.336 37.8501 163.667 33.9971 160.173 31.3467L157.767 34.519C160.106 36.2941 161.354 38.8781 161.354 42.5884H165.336ZM160.234 31.3944C156.918 28.6706 152.212 27.4719 146.448 27.4719V31.4538C151.747 31.4538 155.39 32.5685 157.706 34.4713L160.234 31.3944ZM146.448 27.4719C141.555 27.4719 137.078 28.4309 133.055 30.3882L134.797 33.9688C138.216 32.3053 142.087 31.4538 146.448 31.4538V27.4719ZM133.094 30.3694C129.04 32.2323 125.656 35.0804 122.952 38.8665L126.192 41.1809C128.516 37.9264 131.369 35.5444 134.757 33.9876L133.094 30.3694ZM125.65 38.3499L107.847 26.8838L105.691 30.2315L123.494 41.6975L125.65 38.3499ZM108.422 29.6683C112.328 23.8557 117.723 19.305 124.668 16.0254L122.967 12.4248C115.429 15.9846 109.458 20.989 105.117 27.447L108.422 29.6683ZM124.688 16.0157C131.618 12.647 139.61 10.9356 148.711 10.9356V6.95377C139.104 6.95377 130.501 8.76268 122.947 12.4345L124.688 16.0157ZM148.711 10.9356C156.337 10.9356 162.888 12.2068 168.415 14.684L170.043 11.0505C163.902 8.29768 156.774 6.95377 148.711 6.95377V10.9356ZM168.452 14.7005C174.08 17.0853 178.335 20.4781 181.312 24.8503L184.604 22.6094C181.143 17.5271 176.246 13.6783 170.006 11.0341L168.452 14.7005ZM181.34 24.8904C184.39 29.1409 185.946 34.2053 185.946 40.1746H189.928C189.928 33.4709 188.165 27.5721 184.576 22.5693L181.34 24.8904ZM185.946 40.1746C185.946 45.6179 184.802 50.7035 182.521 55.456L186.111 57.179C188.657 51.8736 189.928 46.1973 189.928 40.1746H185.946ZM182.521 55.456C180.265 60.1556 175.798 65.688 168.931 72.0568L171.639 74.9762C178.652 68.471 183.539 62.5373 186.111 57.179L182.521 55.456ZM168.918 72.0689L144.628 95.0009L147.362 97.8963L171.652 74.9642L168.918 72.0689ZM145.995 98.4395H191.407V94.4577H145.995V98.4395Z" fill="#0146F9" mask="url(#path-1-outside-1_105_1200)"/>
</g>
<defs>
<filter id="filter0_d_105_1200" x="0.00890875" y="0.981565" width="199.361" height="125.156" filterUnits="userSpaceOnUse" color-interpolation-filters="sRGB">
<feFlood flood-opacity="0" result="BackgroundImageFix"/>
<feColorMatrix in="SourceAlpha" type="matrix" values="0 0 0 0 0 0 0 0 0 0 0 0 0 0 0 0 0 0 127 0" result="hardAlpha"/>
<feOffset/>
<feGaussianBlur stdDeviation="3.98187"/>
<feComposite in2="hardAlpha" operator="out"/>
<feColorMatrix type="matrix" values="0 0 0 0 0.00392157 0 0 0 0 0.27451 0 0 0 0 0.976471 0 0 0 1 0"/>
<feBlend mode="normal" in2="BackgroundImageFix" result="effect1_dropShadow_105_1200"/>
<feBlend mode="normal" in="SourceGraphic" in2="effect1_dropShadow_105_1200" result="shape"/>
</filter>
</defs>
</svg>
