<svg width="199" height="126" viewBox="0 0 199 126" fill="none" xmlns="http://www.w3.org/2000/svg">
<g filter="url(#filter0_d_105_1207)">
<mask id="path-1-outside-1_105_1207" maskUnits="userSpaceOnUse" x="6.3739" y="5.84961" width="187" height="114" fill="black">
<rect fill="white" x="6.3739" y="5.84961" width="187" height="114"/>
<path d="M54.104 117.66C45.3536 117.66 37.5587 115.498 30.7193 111.173C23.8799 106.848 18.499 100.612 14.5764 92.4649C10.7544 84.2175 8.84335 74.411 8.84335 63.0455C8.84335 51.6801 10.7544 41.9239 14.5764 33.777C18.499 25.5295 23.8799 19.2433 30.7193 14.9184C37.5587 10.5935 45.3536 8.43104 54.104 8.43104C62.8544 8.43104 70.6493 10.5935 77.4886 14.9184C84.328 19.2433 89.6587 25.5295 93.4807 33.777C97.4033 41.9239 99.3646 51.6801 99.3646 63.0455C99.3646 74.411 97.4033 84.2175 93.4807 92.4649C89.6587 100.612 84.328 106.848 77.4886 111.173C70.6493 115.498 62.8544 117.66 54.104 117.66ZM54.104 96.991C60.5411 96.991 65.57 94.2251 69.1909 88.6932C72.9123 83.1614 74.773 74.6121 74.773 63.0455C74.773 51.4789 72.9123 42.9297 69.1909 37.3978C65.57 31.866 60.5411 29.1001 54.104 29.1001C47.7675 29.1001 42.7385 31.866 39.0171 37.3978C35.3963 42.9297 33.5858 51.4789 33.5858 63.0455C33.5858 74.6121 35.3963 83.1614 39.0171 88.6932C42.7385 94.2251 47.7675 96.991 54.104 96.991ZM162.118 53.2391C171.371 54.7478 178.462 58.2177 183.39 63.649C188.319 68.9797 190.783 75.6179 190.783 83.5637C190.783 89.699 189.174 95.3817 185.955 100.612C182.737 105.741 177.808 109.865 171.17 112.983C164.632 116.101 156.586 117.66 147.031 117.66C139.588 117.66 132.246 116.705 125.004 114.794C117.863 112.782 111.778 109.966 106.749 106.345L116.254 87.6371C120.277 90.6545 124.903 93.0181 130.134 94.728C135.464 96.3372 140.896 97.1419 146.427 97.1419C152.563 97.1419 157.391 95.9852 160.911 93.6719C164.431 91.258 166.191 87.8886 166.191 83.5637C166.191 74.9139 159.603 70.589 146.427 70.589H135.263V54.446L156.988 29.8544H112.029V10.2415H185.955V26.0827L162.118 53.2391Z"/>
</mask>
<path d="M30.7193 111.173L31.7834 109.49L30.7193 111.173ZM14.5764 92.465L12.77 93.3021L12.7762 93.3154L12.7825 93.3286L14.5764 92.465ZM14.5764 33.777L12.7784 32.9219L12.7739 32.9314L14.5764 33.777ZM30.7193 14.9184L31.7834 16.6011L30.7193 14.9184ZM77.4886 14.9184L76.4246 16.6011V16.6011L77.4886 14.9184ZM93.4807 33.777L91.6743 34.6141L91.6805 34.6274L91.6869 34.6407L93.4807 33.777ZM93.4807 92.465L91.6828 91.6098L91.6783 91.6194L93.4807 92.465ZM77.4886 111.173L76.4246 109.49L77.4886 111.173ZM69.1909 88.6932L67.5389 87.5819L67.5319 87.5924L67.525 87.6029L69.1909 88.6932ZM69.1909 37.3978L67.525 38.4882L67.5319 38.4987L67.5389 38.5091L69.1909 37.3978ZM39.0171 37.3978L37.3652 36.2865L37.3582 36.297L37.3513 36.3075L39.0171 37.3978ZM39.0171 88.6932L37.3513 89.7836L37.3582 89.7941L37.3652 89.8045L39.0171 88.6932ZM54.104 115.669C45.6984 115.669 38.2785 113.597 31.7834 109.49L29.6553 112.855C36.839 117.398 45.0088 119.651 54.104 119.651V115.669ZM31.7834 109.49C25.2952 105.387 20.1506 99.4528 16.3702 91.6013L12.7825 93.3286C16.8473 101.771 22.4647 108.308 29.6553 112.855L31.7834 109.49ZM16.3828 91.6278C12.7088 83.6998 10.8343 74.1922 10.8343 63.0455H6.85242C6.85242 74.6298 8.79993 84.7351 12.77 93.3021L16.3828 91.6278ZM10.8343 63.0455C10.8343 51.8979 12.7091 42.4448 16.3788 34.6226L12.7739 32.9314C8.7996 41.403 6.85242 51.4623 6.85242 63.0455H10.8343ZM16.3743 34.6321C20.1567 26.6794 25.3015 20.7 31.7834 16.6011L29.6553 13.2357C22.4584 17.7866 16.8412 24.3796 12.7784 32.9219L16.3743 34.6321ZM31.7834 16.6011C38.2785 12.4939 45.6984 10.422 54.104 10.422V6.4401C45.0088 6.4401 36.839 8.69304 29.6553 13.2357L31.7834 16.6011ZM54.104 10.422C62.5096 10.422 69.9295 12.4939 76.4246 16.6011L78.5527 13.2357C71.369 8.69304 63.1992 6.4401 54.104 6.4401V10.422ZM76.4246 16.6011C82.9015 20.6968 87.9928 26.6698 91.6743 34.6141L95.2871 32.9399C91.3246 24.3892 85.7546 17.7898 78.5527 13.2357L76.4246 16.6011ZM91.6869 34.6407C95.4508 42.4581 97.3737 51.9044 97.3737 63.0455H101.356C101.356 51.4558 99.3558 41.3897 95.2746 32.9133L91.6869 34.6407ZM97.3737 63.0455C97.3737 74.1857 95.4512 83.6866 91.6828 91.6098L95.2787 93.3201C99.3555 84.7483 101.356 74.6363 101.356 63.0455H97.3737ZM91.6783 91.6194C87.9989 99.4623 82.9078 105.39 76.4246 109.49L78.5527 112.855C85.7483 108.305 91.3186 101.761 95.2832 93.3105L91.6783 91.6194ZM76.4246 109.49C69.9295 113.597 62.5096 115.669 54.104 115.669V119.651C63.1992 119.651 71.369 117.398 78.5527 112.855L76.4246 109.49ZM54.104 98.9819C61.2344 98.9819 66.88 95.859 70.8567 89.7836L67.525 87.6029C64.26 92.5911 59.8478 95.0001 54.104 95.0001V98.9819ZM70.8428 89.8045C74.8948 83.7813 76.7639 74.7509 76.7639 63.0455H72.7821C72.7821 74.4734 70.9298 82.5415 67.5389 87.5819L70.8428 89.8045ZM76.7639 63.0455C76.7639 51.3402 74.8948 42.3098 70.8428 36.2865L67.5389 38.5091C70.9298 43.5496 72.7821 51.6177 72.7821 63.0455H76.7639ZM70.8567 36.3075C66.88 30.232 61.2344 27.1091 54.104 27.1091V31.091C59.8478 31.091 64.26 33.4999 67.525 38.4882L70.8567 36.3075ZM54.104 27.1091C47.0646 27.1091 41.4335 30.239 37.3652 36.2865L40.669 38.5091C44.0436 33.4929 48.4704 31.091 54.104 31.091V27.1091ZM37.3513 36.3075C33.4121 42.3256 31.5949 51.3465 31.5949 63.0455H35.5768C35.5768 51.6113 37.3804 43.5338 40.6829 38.4882L37.3513 36.3075ZM31.5949 63.0455C31.5949 74.7445 33.4121 83.7654 37.3513 89.7836L40.6829 87.6029C37.3804 82.5573 35.5768 74.4797 35.5768 63.0455H31.5949ZM37.3652 89.8045C41.4335 95.8521 47.0646 98.9819 54.104 98.9819V95.0001C48.4704 95.0001 44.0436 92.5981 40.669 87.5819L37.3652 89.8045ZM162.118 53.2391L160.622 51.9257L158.251 54.6259L161.797 55.2041L162.118 53.2391ZM183.39 63.649L181.916 64.9869L181.922 64.9938L181.928 65.0006L183.39 63.649ZM185.955 100.612L187.642 101.67L187.646 101.663L187.651 101.655L185.955 100.612ZM171.17 112.983L170.323 111.181L170.313 111.186L171.17 112.983ZM125.004 114.794L124.464 116.71L124.48 116.714L124.496 116.719L125.004 114.794ZM106.749 106.345L104.974 105.443L104.201 106.964L105.586 107.961L106.749 106.345ZM116.254 87.6371L117.448 86.0444L115.552 84.6224L114.479 86.7353L116.254 87.6371ZM130.134 94.728L129.515 96.6204L129.536 96.6274L129.558 96.634L130.134 94.728ZM160.911 93.6719L162.004 95.3357L162.021 95.325L162.037 95.3139L160.911 93.6719ZM135.263 70.589H133.272V72.5799H135.263V70.589ZM135.263 54.446L133.771 53.1279L133.272 53.6925V54.446H135.263ZM156.988 29.8544L158.48 31.1726L161.404 27.8635H156.988V29.8544ZM112.029 29.8544H110.038V31.8453H112.029V29.8544ZM112.029 10.2415V8.25052H110.038V10.2415H112.029ZM185.955 10.2415H187.946V8.25052H185.955V10.2415ZM185.955 26.0827L187.451 27.3961L187.946 26.8325V26.0827H185.955ZM161.797 55.2041C170.732 56.6607 177.366 59.9726 181.916 64.9869L184.865 62.3111C179.558 56.4629 172.01 52.8348 162.438 51.2741L161.797 55.2041ZM181.928 65.0006C186.483 69.9272 188.792 76.0675 188.792 83.5637H192.774C192.774 75.1684 190.154 68.0322 184.852 62.2975L181.928 65.0006ZM188.792 83.5637C188.792 89.3302 187.285 94.6518 184.259 99.5684L187.651 101.655C191.062 96.1117 192.774 90.0678 192.774 83.5637H188.792ZM184.269 99.5537C181.292 104.297 176.69 108.191 170.323 111.181L172.016 114.785C178.927 111.539 184.181 107.185 187.642 101.67L184.269 99.5537ZM170.313 111.186C164.114 114.142 156.38 115.669 147.031 115.669V119.651C156.792 119.651 165.15 118.06 172.027 114.78L170.313 111.186ZM147.031 115.669C139.761 115.669 132.589 114.736 125.512 112.868L124.496 116.719C131.903 118.673 139.415 119.651 147.031 119.651V115.669ZM125.544 112.877C118.584 110.917 112.719 108.19 107.912 104.729L105.586 107.961C110.836 111.741 117.142 114.647 124.464 116.71L125.544 112.877ZM108.524 107.247L118.029 88.539L114.479 86.7353L104.974 105.443L108.524 107.247ZM115.059 89.2299C119.272 92.3897 124.097 94.8492 129.515 96.6204L130.752 92.8356C125.71 91.1871 121.281 88.9193 117.448 86.0444L115.059 89.2299ZM129.558 96.634C135.074 98.2992 140.699 99.1328 146.427 99.1328V95.1509C141.092 95.1509 135.854 94.3753 130.709 92.822L129.558 96.634ZM146.427 99.1328C152.783 99.1328 158.043 97.9391 162.004 95.3357L159.817 92.0081C156.739 94.0314 152.342 95.1509 146.427 95.1509V99.1328ZM162.037 95.3139C166.107 92.5229 168.182 88.5346 168.182 83.5637H164.2C164.2 87.2426 162.755 89.9931 159.785 92.0299L162.037 95.3139ZM168.182 83.5637C168.182 78.6456 166.259 74.7394 162.343 72.1683C158.573 69.6931 153.17 68.598 146.427 68.598V72.5799C152.861 72.5799 157.34 73.6473 160.158 75.497C162.829 77.2508 164.2 79.832 164.2 83.5637H168.182ZM146.427 68.598H135.263V72.5799H146.427V68.598ZM137.254 70.589V54.446H133.272V70.589H137.254ZM136.755 55.7642L158.48 31.1726L155.496 28.5362L133.771 53.1279L136.755 55.7642ZM156.988 27.8635H112.029V31.8453H156.988V27.8635ZM114.02 29.8544V10.2415H110.038V29.8544H114.02ZM112.029 12.2324H185.955V8.25052H112.029V12.2324ZM183.964 10.2415V26.0827H187.946V10.2415H183.964ZM184.459 24.7693L160.622 51.9257L163.614 54.5525L187.451 27.3961L184.459 24.7693Z" fill="#0146F9" mask="url(#path-1-outside-1_105_1207)"/>
</g>
<defs>
<filter id="filter0_d_105_1207" x="0.879636" y="0.467893" width="197.867" height="125.156" filterUnits="userSpaceOnUse" color-interpolation-filters="sRGB">
<feFlood flood-opacity="0" result="BackgroundImageFix"/>
<feColorMatrix in="SourceAlpha" type="matrix" values="0 0 0 0 0 0 0 0 0 0 0 0 0 0 0 0 0 0 127 0" result="hardAlpha"/>
<feOffset/>
<feGaussianBlur stdDeviation="3.98187"/>
<feComposite in2="hardAlpha" operator="out"/>
<feColorMatrix type="matrix" values="0 0 0 0 0.00392157 0 0 0 0 0.27451 0 0 0 0 0.976471 0 0 0 1 0"/>
<feBlend mode="normal" in2="BackgroundImageFix" result="effect1_dropShadow_105_1207"/>
<feBlend mode="normal" in="SourceGraphic" in2="effect1_dropShadow_105_1207" result="shape"/>
</filter>
</defs>
</svg>
