<svg width="219" height="127" viewBox="0 0 219 127" fill="none" xmlns="http://www.w3.org/2000/svg">
<g filter="url(#filter0_d_105_1214)">
<mask id="path-1-outside-1_105_1214" maskUnits="userSpaceOnUse" x="6.39893" y="6.36328" width="207" height="114" fill="black">
<rect fill="white" x="6.39893" y="6.36328" width="207" height="114"/>
<path d="M54.1128 118.174C45.3624 118.174 37.5676 116.011 30.7282 111.686C23.8888 107.361 18.5078 101.126 14.5852 92.9786C10.7632 84.7311 8.85221 74.9247 8.85221 63.5592C8.85221 52.1938 10.7632 42.4376 14.5852 34.2907C18.5078 26.0432 23.8888 19.757 30.7282 15.4321C37.5676 11.1072 45.3624 8.94471 54.1128 8.94471C62.8632 8.94471 70.6581 11.1072 77.4975 15.4321C84.3369 19.757 89.6676 26.0432 93.4896 34.2907C97.4122 42.4376 99.3735 52.1938 99.3735 63.5592C99.3735 74.9247 97.4122 84.7311 93.4896 92.9786C89.6676 101.126 84.3369 107.361 77.4975 111.686C70.6581 116.011 62.8632 118.174 54.1128 118.174ZM54.1128 97.5047C60.5499 97.5047 65.5789 94.7388 69.1997 89.2069C72.9211 83.675 74.7819 75.1258 74.7819 63.5592C74.7819 51.9926 72.9211 43.4434 69.1997 37.9115C65.5789 32.3797 60.5499 29.6137 54.1128 29.6137C47.7764 29.6137 42.7474 32.3797 39.026 37.9115C35.4051 43.4434 33.5947 51.9926 33.5947 63.5592C33.5947 75.1258 35.4051 83.675 39.026 89.2069C42.7474 94.7388 47.7764 97.5047 54.1128 97.5047ZM210.973 94.1856H193.774V116.363H169.936V94.1856H113.059V77.7409L162.846 10.7551H188.493L142.327 74.2709H170.691V54.5071H193.774V74.2709H210.973V94.1856Z"/>
</mask>
<path d="M30.7282 111.686L31.7923 110.004L30.7282 111.686ZM14.5852 92.9786L12.7788 93.8157L12.785 93.8291L12.7914 93.8423L14.5852 92.9786ZM14.5852 34.2907L12.7873 33.4355L12.7828 33.4451L14.5852 34.2907ZM30.7282 15.4321L31.7923 17.1148H31.7923L30.7282 15.4321ZM77.4975 15.4321L76.4334 17.1148V17.1148L77.4975 15.4321ZM93.4896 34.2907L91.6832 35.1278L91.6894 35.1411L91.6958 35.1544L93.4896 34.2907ZM93.4896 92.9786L91.6916 92.1235L91.6871 92.133L93.4896 92.9786ZM77.4975 111.686L76.4334 110.004L77.4975 111.686ZM69.1997 89.2069L67.5478 88.0956L67.5408 88.106L67.5339 88.1165L69.1997 89.2069ZM69.1997 37.9115L67.5339 39.0019L67.5408 39.0124L67.5478 39.0228L69.1997 37.9115ZM39.026 37.9115L37.374 36.8002L37.367 36.8106L37.3601 36.8212L39.026 37.9115ZM39.026 89.2069L37.3601 90.2973L37.367 90.3078L37.374 90.3182L39.026 89.2069ZM54.1128 116.183C45.7073 116.183 38.2873 114.111 31.7923 110.004L29.6641 113.369C36.8478 117.912 45.0176 120.165 54.1128 120.165V116.183ZM31.7923 110.004C25.3041 105.901 20.1594 99.9665 16.3791 92.1149L12.7914 93.8423C16.8562 102.285 22.4735 108.822 29.6641 113.369L31.7923 110.004ZM16.3916 92.1415C12.7176 84.2134 10.8431 74.7059 10.8431 63.5592H6.86127C6.86127 75.1434 8.80878 85.2488 12.7788 93.8157L16.3916 92.1415ZM10.8431 63.5592C10.8431 52.4115 12.718 42.9585 16.3877 35.1363L12.7828 33.4451C8.80845 41.9167 6.86127 51.976 6.86127 63.5592H10.8431ZM16.3832 35.1458C20.1656 27.193 25.3103 21.2137 31.7923 17.1148L29.6641 13.7493C22.4673 18.3003 16.85 24.8933 12.7873 33.4355L16.3832 35.1458ZM31.7923 17.1148C38.2873 13.0076 45.7073 10.9356 54.1128 10.9356V6.95377C45.0176 6.95377 36.8478 9.20671 29.6641 13.7493L31.7923 17.1148ZM54.1128 10.9356C62.5184 10.9356 69.9384 13.0076 76.4334 17.1148L78.5616 13.7493C71.3779 9.20671 63.208 6.95377 54.1128 6.95377V10.9356ZM76.4334 17.1148C82.9104 21.2105 88.0017 27.1835 91.6832 35.1278L95.296 33.4536C91.3335 24.9029 85.7634 18.3034 78.5616 13.7493L76.4334 17.1148ZM91.6958 35.1544C95.4597 42.9717 97.3825 52.4181 97.3825 63.5592H101.364C101.364 51.9695 99.3647 41.9034 95.2834 33.427L91.6958 35.1544ZM97.3825 63.5592C97.3825 74.6993 95.46 84.2003 91.6917 92.1235L95.2875 93.8337C99.3643 85.262 101.364 75.15 101.364 63.5592H97.3825ZM91.6871 92.133C88.0077 99.976 82.9166 105.904 76.4334 110.004L78.5616 113.369C85.7571 108.819 91.3274 102.275 95.292 93.8242L91.6871 92.133ZM76.4334 110.004C69.9384 114.111 62.5184 116.183 54.1128 116.183V120.165C63.208 120.165 71.3779 117.912 78.5616 113.369L76.4334 110.004ZM54.1128 99.4956C61.2432 99.4956 66.8889 96.3727 70.8655 90.2973L67.5339 88.1165C64.2688 93.1048 59.8566 95.5137 54.1128 95.5137V99.4956ZM70.8516 90.3182C74.9036 84.295 76.7728 75.2646 76.7728 63.5592H72.7909C72.7909 74.9871 70.9387 83.0551 67.5478 88.0956L70.8516 90.3182ZM76.7728 63.5592C76.7728 51.8539 74.9036 42.8235 70.8516 36.8002L67.5478 39.0228C70.9387 44.0633 72.7909 52.1313 72.7909 63.5592H76.7728ZM70.8655 36.8212C66.8889 30.7457 61.2432 27.6228 54.1128 27.6228V31.6047C59.8566 31.6047 64.2688 34.0136 67.5339 39.0019L70.8655 36.8212ZM54.1128 27.6228C47.0734 27.6228 41.4424 30.7527 37.374 36.8002L40.6779 39.0228C44.0524 34.0066 48.4793 31.6047 54.1128 31.6047V27.6228ZM37.3601 36.8212C33.421 42.8393 31.6037 51.8602 31.6037 63.5592H35.5856C35.5856 52.125 37.3892 44.0474 40.6918 39.0019L37.3601 36.8212ZM31.6037 63.5592C31.6037 75.2582 33.421 84.2791 37.3601 90.2973L40.6918 88.1165C37.3892 83.071 35.5856 74.9934 35.5856 63.5592H31.6037ZM37.374 90.3182C41.4424 96.3657 47.0734 99.4956 54.1128 99.4956V95.5137C48.4793 95.5137 44.0524 93.1118 40.6779 88.0956L37.374 90.3182ZM210.973 94.1856V96.1765H212.964V94.1856H210.973ZM193.774 94.1856V92.1946H191.783V94.1856H193.774ZM193.774 116.363V118.354H195.765V116.363H193.774ZM169.936 116.363H167.946V118.354H169.936V116.363ZM169.936 94.1856H171.927V92.1946H169.936V94.1856ZM113.059 94.1856H111.068V96.1765H113.059V94.1856ZM113.059 77.7409L111.461 76.5532L111.068 77.082V77.7409H113.059ZM162.846 10.7551V8.76419H161.845L161.248 9.56749L162.846 10.7551ZM188.493 10.7551L190.104 11.9257L192.402 8.76419H188.493V10.7551ZM142.327 74.2709L140.717 73.1003L138.419 76.2618H142.327V74.2709ZM170.691 74.2709V76.2618H172.682V74.2709H170.691ZM170.691 54.5071V52.5161H168.7V54.5071H170.691ZM193.774 54.5071H195.765V52.5161H193.774V54.5071ZM193.774 74.2709H191.783V76.2618H193.774V74.2709ZM210.973 74.2709H212.964V72.28H210.973V74.2709ZM210.973 92.1946H193.774V96.1765H210.973V92.1946ZM191.783 94.1856V116.363H195.765V94.1856H191.783ZM193.774 114.372H169.936V118.354H193.774V114.372ZM171.927 116.363V94.1856H167.946V116.363H171.927ZM169.936 92.1946H113.059V96.1765H169.936V92.1946ZM115.05 94.1856V77.7409H111.068V94.1856H115.05ZM114.657 78.9285L164.444 11.9428L161.248 9.56749L111.461 76.5532L114.657 78.9285ZM162.846 12.7461H188.493V8.76419H162.846V12.7461ZM186.883 9.58458L140.717 73.1003L143.938 75.4415L190.104 11.9257L186.883 9.58458ZM142.327 76.2618H170.691V72.28H142.327V76.2618ZM172.682 74.2709V54.5071H168.7V74.2709H172.682ZM170.691 56.498H193.774V52.5161H170.691V56.498ZM191.783 54.5071V74.2709H195.765V54.5071H191.783ZM193.774 76.2618H210.973V72.28H193.774V76.2618ZM208.982 74.2709V94.1856H212.964V74.2709H208.982Z" fill="#0146F9" mask="url(#path-1-outside-1_105_1214)"/>
</g>
<defs>
<filter id="filter0_d_105_1214" x="0.888486" y="0.981565" width="218.048" height="125.156" filterUnits="userSpaceOnUse" color-interpolation-filters="sRGB">
<feFlood flood-opacity="0" result="BackgroundImageFix"/>
<feColorMatrix in="SourceAlpha" type="matrix" values="0 0 0 0 0 0 0 0 0 0 0 0 0 0 0 0 0 0 127 0" result="hardAlpha"/>
<feOffset/>
<feGaussianBlur stdDeviation="3.98187"/>
<feComposite in2="hardAlpha" operator="out"/>
<feColorMatrix type="matrix" values="0 0 0 0 0.00392157 0 0 0 0 0.27451 0 0 0 0 0.976471 0 0 0 1 0"/>
<feBlend mode="normal" in2="BackgroundImageFix" result="effect1_dropShadow_105_1214"/>
<feBlend mode="normal" in="SourceGraphic" in2="effect1_dropShadow_105_1214" result="shape"/>
</filter>
</defs>
</svg>
