<svg width="202" height="126" viewBox="0 0 202 126" fill="none" xmlns="http://www.w3.org/2000/svg">
<g filter="url(#filter0_d_105_1221)">
<mask id="path-1-outside-1_105_1221" maskUnits="userSpaceOnUse" x="5.68604" y="5.84961" width="190" height="114" fill="black">
<rect fill="white" x="5.68604" y="5.84961" width="190" height="114"/>
<path d="M53.7033 117.66C44.9529 117.66 37.158 115.498 30.3187 111.173C23.4793 106.848 18.0983 100.612 14.1757 92.4649C10.3537 84.2175 8.44269 74.411 8.44269 63.0455C8.44269 51.6801 10.3537 41.9239 14.1757 33.777C18.0983 25.5295 23.4793 19.2433 30.3187 14.9184C37.158 10.5935 44.9529 8.43104 53.7033 8.43104C62.4537 8.43104 70.2486 10.5935 77.088 14.9184C83.9274 19.2433 89.2581 25.5295 93.0801 33.777C97.0027 41.9239 98.964 51.6801 98.964 63.0455C98.964 74.411 97.0027 84.2175 93.0801 92.4649C89.2581 100.612 83.9274 106.848 77.088 111.173C70.2486 115.498 62.4537 117.66 53.7033 117.66ZM53.7033 96.991C60.1404 96.991 65.1694 94.2251 68.7902 88.6932C72.5116 83.1614 74.3723 74.6121 74.3723 63.0455C74.3723 51.4789 72.5116 42.9297 68.7902 37.3978C65.1694 31.866 60.1404 29.1001 53.7033 29.1001C47.3668 29.1001 42.3379 31.866 38.6164 37.3978C34.9956 42.9297 33.1852 51.4789 33.1852 63.0455C33.1852 74.6121 34.9956 83.1614 38.6164 88.6932C42.3379 94.2251 47.3668 96.991 53.7033 96.991ZM150.065 49.92C164.951 49.92 175.914 52.887 182.954 58.8212C190.095 64.7554 193.666 72.7011 193.666 82.6585C193.666 89.0955 192.057 94.9794 188.838 100.31C185.62 105.54 180.691 109.765 174.053 112.983C167.515 116.101 159.419 117.66 149.763 117.66C142.32 117.66 134.978 116.705 127.736 114.794C120.595 112.782 114.51 109.966 109.481 106.345L119.137 87.6371C123.16 90.6545 127.787 93.0181 133.017 94.728C138.247 96.3372 143.628 97.1419 149.16 97.1419C155.295 97.1419 160.123 95.9349 163.643 93.521C167.163 91.1071 168.923 87.7377 168.923 83.4128C168.923 78.8868 167.063 75.4671 163.341 73.1537C159.72 70.8404 153.384 69.6838 144.332 69.6838H117.326L122.758 10.2415H187.179V29.8544H143.125L141.465 49.92H150.065Z"/>
</mask>
<path d="M30.3187 111.173L31.3827 109.49L30.3187 111.173ZM14.1757 92.465L12.3693 93.3021L12.3755 93.3154L12.3819 93.3286L14.1757 92.465ZM14.1757 33.777L12.3777 32.9219L12.3733 32.9314L14.1757 33.777ZM30.3187 14.9184L31.3827 16.6011L30.3187 14.9184ZM77.088 14.9184L76.0239 16.6011V16.6011L77.088 14.9184ZM93.0801 33.777L91.2737 34.6141L91.2799 34.6274L91.2862 34.6407L93.0801 33.777ZM93.0801 92.465L91.2821 91.6098L91.2776 91.6194L93.0801 92.465ZM77.088 111.173L76.0239 109.49L77.088 111.173ZM68.7902 88.6932L67.1383 87.5819L67.1313 87.5924L67.1244 87.6029L68.7902 88.6932ZM68.7902 37.3978L67.1244 38.4882L67.1313 38.4987L67.1383 38.5091L68.7902 37.3978ZM38.6164 37.3978L36.9645 36.2865L36.9575 36.297L36.9506 36.3075L38.6164 37.3978ZM38.6164 88.6932L36.9506 89.7836L36.9575 89.7941L36.9645 89.8045L38.6164 88.6932ZM53.7033 115.669C45.2977 115.669 37.8778 113.597 31.3827 109.49L29.2546 112.855C36.4383 117.398 44.6081 119.651 53.7033 119.651V115.669ZM31.3827 109.49C24.8946 105.387 19.7499 99.4528 15.9695 91.6013L12.3819 93.3286C16.4467 101.771 22.064 108.308 29.2546 112.855L31.3827 109.49ZM15.9821 91.6278C12.3081 83.6998 10.4336 74.1922 10.4336 63.0455H6.45175C6.45175 74.6298 8.39927 84.7351 12.3693 93.3021L15.9821 91.6278ZM10.4336 63.0455C10.4336 51.8979 12.3085 42.4448 15.9781 34.6226L12.3733 32.9314C8.39894 41.403 6.45175 51.4623 6.45175 63.0455H10.4336ZM15.9736 34.6321C19.7561 26.6794 24.9008 20.7 31.3827 16.6011L29.2546 13.2357C22.0578 17.7866 16.4405 24.3796 12.3778 32.9219L15.9736 34.6321ZM31.3827 16.6011C37.8778 12.4939 45.2977 10.422 53.7033 10.422V6.4401C44.6081 6.4401 36.4383 8.69304 29.2546 13.2357L31.3827 16.6011ZM53.7033 10.422C62.1089 10.422 69.5288 12.4939 76.0239 16.6011L78.1521 13.2357C70.9684 8.69304 62.7985 6.4401 53.7033 6.4401V10.422ZM76.0239 16.6011C82.5008 20.6968 87.5922 26.6698 91.2737 34.6141L94.8865 32.9399C90.924 24.3892 85.3539 17.7898 78.1521 13.2357L76.0239 16.6011ZM91.2862 34.6407C95.0502 42.4581 96.973 51.9044 96.973 63.0455H100.955C100.955 51.4558 98.9552 41.3897 94.8739 32.9133L91.2862 34.6407ZM96.973 63.0455C96.973 74.1857 95.0505 83.6866 91.2821 91.6098L94.878 93.3201C98.9548 84.7483 100.955 74.6363 100.955 63.0455H96.973ZM91.2776 91.6194C87.5982 99.4623 82.5071 105.39 76.0239 109.49L78.1521 112.855C85.3476 108.305 90.9179 101.761 94.8825 93.3105L91.2776 91.6194ZM76.0239 109.49C69.5288 113.597 62.1089 115.669 53.7033 115.669V119.651C62.7985 119.651 70.9684 117.398 78.1521 112.855L76.0239 109.49ZM53.7033 98.9819C60.8337 98.9819 66.4794 95.859 70.456 89.7836L67.1244 87.6029C63.8593 92.5911 59.4471 95.0001 53.7033 95.0001V98.9819ZM70.4421 89.8045C74.4941 83.7813 76.3633 74.7509 76.3633 63.0455H72.3814C72.3814 74.4734 70.5291 82.5415 67.1383 87.5819L70.4421 89.8045ZM76.3633 63.0455C76.3633 51.3402 74.4941 42.3098 70.4421 36.2865L67.1383 38.5091C70.5291 43.5496 72.3814 51.6177 72.3814 63.0455H76.3633ZM70.456 36.3075C66.4794 30.232 60.8337 27.1091 53.7033 27.1091V31.091C59.4471 31.091 63.8593 33.4999 67.1244 38.4882L70.456 36.3075ZM53.7033 27.1091C46.6639 27.1091 41.0329 30.239 36.9645 36.2865L40.2684 38.5091C43.6429 33.4929 48.0698 31.091 53.7033 31.091V27.1091ZM36.9506 36.3075C33.0115 42.3256 31.1942 51.3465 31.1942 63.0455H35.1761C35.1761 51.6113 36.9797 43.5338 40.2823 38.4882L36.9506 36.3075ZM31.1942 63.0455C31.1942 74.7445 33.0115 83.7654 36.9506 89.7836L40.2823 87.6029C36.9797 82.5573 35.1761 74.4797 35.1761 63.0455H31.1942ZM36.9645 89.8045C41.0329 95.8521 46.6639 98.9819 53.7033 98.9819V95.0001C48.0698 95.0001 43.6429 92.5981 40.2684 87.5819L36.9645 89.8045ZM182.954 58.8212L181.671 60.3436L181.682 60.3525L182.954 58.8212ZM188.838 100.31L190.534 101.354L190.538 101.346L190.542 101.339L188.838 100.31ZM174.053 112.983L174.91 114.78L174.922 114.775L174.053 112.983ZM127.736 114.794L127.196 116.71L127.212 116.714L127.228 116.719L127.736 114.794ZM109.481 106.345L107.712 105.432L106.925 106.957L108.318 107.961L109.481 106.345ZM119.137 87.6371L120.331 86.0444L118.448 84.6316L117.368 86.724L119.137 87.6371ZM133.017 94.728L132.398 96.6204L132.415 96.6258L132.431 96.6309L133.017 94.728ZM163.643 93.521L164.769 95.163L163.643 93.521ZM163.341 73.1537L162.269 74.8315L162.28 74.8381L162.29 74.8446L163.341 73.1537ZM117.326 69.6838L115.344 69.5026L115.145 71.6747H117.326V69.6838ZM122.758 10.2415V8.25052H120.94L120.775 10.0603L122.758 10.2415ZM187.179 10.2415H189.17V8.25052H187.179V10.2415ZM187.179 29.8544V31.8453H189.17V29.8544H187.179ZM143.125 29.8544V27.8635H141.292L141.141 29.6903L143.125 29.8544ZM141.465 49.92L139.481 49.7559L139.303 51.9109H141.465V49.92ZM150.065 51.9109C164.752 51.9109 175.153 54.8498 181.671 60.3435L184.237 57.2989C176.674 50.9243 165.149 47.929 150.065 47.929V51.9109ZM181.682 60.3525C188.331 65.8782 191.675 73.2441 191.675 82.6585H195.657C195.657 72.1582 191.859 63.6326 184.227 57.29L181.682 60.3525ZM191.675 82.6585C191.675 88.7457 190.158 94.2717 187.134 99.2811L190.542 101.339C193.955 95.6872 195.657 89.4454 195.657 82.6585H191.675ZM187.143 99.2667C184.16 104.114 179.551 108.105 173.184 111.192L174.922 114.775C181.832 111.424 187.08 106.967 190.534 101.354L187.143 99.2667ZM173.196 111.186C167 114.141 159.216 115.669 149.763 115.669V119.651C159.621 119.651 168.031 118.061 174.91 114.78L173.196 111.186ZM149.763 115.669C142.493 115.669 135.321 114.736 128.244 112.868L127.228 116.719C134.635 118.673 142.148 119.651 149.763 119.651V115.669ZM128.276 112.877C121.316 110.917 115.452 108.19 110.644 104.729L108.318 107.961C113.569 111.741 119.874 114.647 127.196 116.71L128.276 112.877ZM111.25 107.258L120.906 88.5503L117.368 86.724L107.712 105.432L111.25 107.258ZM117.942 89.2299C122.155 92.3897 126.98 94.8492 132.398 96.6204L133.635 92.8356C128.593 91.1871 124.165 88.9193 120.331 86.0444L117.942 89.2299ZM132.431 96.6309C137.853 98.2991 143.432 99.1328 149.16 99.1328V95.1509C143.824 95.1509 138.641 94.3753 133.602 92.8251L132.431 96.6309ZM149.16 99.1328C155.529 99.1328 160.801 97.8837 164.769 95.163L162.517 91.879C159.444 93.9862 155.061 95.1509 149.16 95.1509V99.1328ZM164.769 95.163C168.839 92.372 170.914 88.3838 170.914 83.4128H166.933C166.933 87.0917 165.487 89.8423 162.517 91.879L164.769 95.163ZM170.914 83.4128C170.914 78.2261 168.721 74.1538 164.392 71.4629L162.29 74.8446C165.404 76.7803 166.933 79.5474 166.933 83.4128H170.914ZM164.413 71.476C160.274 68.8314 153.427 67.6928 144.332 67.6928V71.6747C153.341 71.6747 159.167 72.8494 162.269 74.8315L164.413 71.476ZM144.332 67.6928H117.326V71.6747H144.332V67.6928ZM119.309 69.8649L124.74 10.4226L120.775 10.0603L115.344 69.5026L119.309 69.8649ZM122.758 12.2324H187.179V8.25052H122.758V12.2324ZM185.188 10.2415V29.8544H189.17V10.2415H185.188ZM187.179 27.8635H143.125V31.8453H187.179V27.8635ZM141.141 29.6903L139.481 49.7559L143.449 50.0841L145.109 30.0185L141.141 29.6903ZM141.465 51.9109H150.065V47.929H141.465V51.9109Z" fill="#0146F9" mask="url(#path-1-outside-1_105_1221)"/>
</g>
<defs>
<filter id="filter0_d_105_1221" x="0.47894" y="0.467893" width="201.151" height="125.156" filterUnits="userSpaceOnUse" color-interpolation-filters="sRGB">
<feFlood flood-opacity="0" result="BackgroundImageFix"/>
<feColorMatrix in="SourceAlpha" type="matrix" values="0 0 0 0 0 0 0 0 0 0 0 0 0 0 0 0 0 0 127 0" result="hardAlpha"/>
<feOffset/>
<feGaussianBlur stdDeviation="3.98187"/>
<feComposite in2="hardAlpha" operator="out"/>
<feColorMatrix type="matrix" values="0 0 0 0 0.00392157 0 0 0 0 0.27451 0 0 0 0 0.976471 0 0 0 1 0"/>
<feBlend mode="normal" in2="BackgroundImageFix" result="effect1_dropShadow_105_1221"/>
<feBlend mode="normal" in="SourceGraphic" in2="effect1_dropShadow_105_1221" result="shape"/>
</filter>
</defs>
</svg>
