<svg width="197" height="66" viewBox="0 0 197 66" fill="none" xmlns="http://www.w3.org/2000/svg">
<path d="M194.001 50.8223C195.909 51.4805 196.863 52.7971 196.863 54.7718C196.863 56.2734 196.311 57.4357 195.206 58.2584C194.102 59.0813 192.455 59.4926 190.266 59.4926H181.62V42.8926H189.904C191.932 42.8926 193.518 43.2731 194.664 44.0341C195.808 44.7747 196.38 45.8238 196.38 47.1815C196.38 48.0042 196.169 48.7345 195.749 49.3721C195.346 49.9893 194.764 50.4726 194.001 50.8223ZM185.928 49.7115H189.482C191.129 49.7115 191.952 49.115 191.952 47.9219C191.952 46.7494 191.129 46.1632 189.482 46.1632H185.928V49.7115ZM189.873 56.222C191.601 56.222 192.465 55.6152 192.465 54.4016C192.465 53.7639 192.264 53.301 191.862 53.0131C191.461 52.7046 190.828 52.5502 189.964 52.5502H185.928V56.222H189.873Z" fill="black"/>
<path d="M169.501 59.7393C167.795 59.7393 166.258 59.3794 164.892 58.6594C163.547 57.9188 162.493 56.9006 161.73 55.6047C160.966 54.3087 160.584 52.8381 160.584 51.1924C160.584 49.5468 160.966 48.0761 161.73 46.7801C162.493 45.4842 163.547 44.4763 164.892 43.7563C166.258 43.0158 167.795 42.6455 169.501 42.6455C171.209 42.6455 172.734 43.0158 174.08 43.7563C175.426 44.4763 176.48 45.4842 177.243 46.7801C178.006 48.0761 178.387 49.5468 178.387 51.1924C178.387 52.8381 178.006 54.3087 177.243 55.6047C176.48 56.9006 175.426 57.9188 174.08 58.6594C172.734 59.3794 171.209 59.7393 169.501 59.7393ZM169.501 55.7898C170.706 55.7898 171.69 55.3784 172.454 54.5556C173.237 53.7123 173.628 52.5912 173.628 51.1924C173.628 49.7937 173.237 48.6828 172.454 47.8601C171.69 47.0166 170.706 46.595 169.501 46.595C168.296 46.595 167.302 47.0166 166.519 47.8601C165.736 48.6828 165.344 49.7937 165.344 51.1924C165.344 52.5912 165.736 53.7123 166.519 54.5556C167.302 55.3784 168.296 55.7898 169.501 55.7898Z" fill="black"/>
<path d="M150.543 42.6455C152.049 42.6455 153.414 43.0055 154.639 43.7254C155.885 44.4248 156.859 45.4224 157.562 46.7184C158.264 47.9938 158.616 49.4851 158.616 51.1924C158.616 52.8997 158.264 54.4014 157.562 55.6973C156.859 56.9726 155.885 57.9703 154.639 58.6903C153.414 59.3896 152.049 59.7393 150.543 59.7393C148.475 59.7393 146.848 59.0708 145.663 57.7337V65.4784H140.964V42.8924H145.452V44.8054C146.617 43.3655 148.314 42.6455 150.543 42.6455ZM149.73 55.7898C150.935 55.7898 151.919 55.3784 152.682 54.5556C153.465 53.7123 153.856 52.5912 153.856 51.1924C153.856 49.7937 153.465 48.6828 152.682 47.8601C151.919 47.0166 150.935 46.595 149.73 46.595C148.525 46.595 147.53 47.0166 146.747 47.8601C145.984 48.6828 145.603 49.7937 145.603 51.1924C145.603 52.5912 145.984 53.7123 146.747 54.5556C147.53 55.3784 148.525 55.7898 149.73 55.7898Z" fill="black"/>
<path d="M128.874 59.7393C127.168 59.7393 125.631 59.3794 124.266 58.6594C122.92 57.9188 121.866 56.9006 121.103 55.6047C120.339 54.3087 119.958 52.8381 119.958 51.1924C119.958 49.5468 120.339 48.0761 121.103 46.7801C121.866 45.4842 122.92 44.4763 124.266 43.7563C125.631 43.0158 127.168 42.6455 128.874 42.6455C130.582 42.6455 132.108 43.0158 133.454 43.7563C134.799 44.4763 135.853 45.4842 136.616 46.7801C137.379 48.0761 137.762 49.5468 137.762 51.1924C137.762 52.8381 137.379 54.3087 136.616 55.6047C135.853 56.9006 134.799 57.9188 133.454 58.6594C132.108 59.3794 130.582 59.7393 128.874 59.7393ZM128.874 55.7898C130.079 55.7898 131.064 55.3784 131.827 54.5556C132.61 53.7123 133.002 52.5912 133.002 51.1924C133.002 49.7937 132.61 48.6828 131.827 47.8601C131.064 47.0166 130.079 46.595 128.874 46.595C127.669 46.595 126.675 47.0166 125.892 47.8601C125.109 48.6828 124.718 49.7937 124.718 51.1924C124.718 52.5912 125.109 53.7123 125.892 54.5556C126.675 55.3784 127.669 55.7898 128.874 55.7898Z" fill="black"/>
<path d="M119.455 46.8421H113.973V59.4926H109.304V46.8421H103.821V42.8926H119.455V46.8421Z" fill="black"/>
<path d="M93.9548 42.6455C96.4652 42.6455 98.3931 43.2627 99.7386 44.4969C101.084 45.7105 101.757 47.5514 101.757 50.02V59.4925H97.3589V57.4252C96.4752 58.9679 94.8284 59.7393 92.4185 59.7393C91.1734 59.7393 90.089 59.5233 89.1651 59.0914C88.2614 58.6594 87.5685 58.0628 87.0866 57.3018C86.6045 56.5407 86.3635 55.6767 86.3635 54.7099C86.3635 53.1672 86.9259 51.9535 88.0505 51.069C89.1953 50.1845 90.9525 49.7422 93.3222 49.7422H97.0576C97.0576 48.6931 96.7463 47.8909 96.1238 47.3355C95.5011 46.7595 94.5674 46.4716 93.3222 46.4716C92.4587 46.4716 91.6052 46.6156 90.7616 46.9035C89.9383 47.171 89.2354 47.5413 88.653 48.0143L86.9661 44.6511C87.8497 44.0134 88.904 43.5197 90.129 43.17C91.3742 42.8203 92.6494 42.6455 93.9548 42.6455ZM93.5934 56.4995C94.3966 56.4995 95.1096 56.3144 95.7321 55.9441C96.3547 55.5532 96.7966 54.9876 97.0576 54.2471V52.55H93.8344C91.9064 52.55 90.9424 53.198 90.9424 54.4939C90.9424 55.111 91.1734 55.6047 91.6353 55.975C92.1172 56.3247 92.7699 56.4995 93.5934 56.4995Z" fill="black"/>
<path d="M76.5571 42.6455C78.0633 42.6455 79.4289 43.0055 80.6539 43.7254C81.899 44.4248 82.873 45.4224 83.576 46.7184C84.2788 47.9938 84.6303 49.4851 84.6303 51.1924C84.6303 52.8997 84.2788 54.4014 83.576 55.6973C82.873 56.9726 81.899 57.9703 80.6539 58.6903C79.4289 59.3896 78.0633 59.7393 76.5571 59.7393C74.4885 59.7393 72.8618 59.0708 71.677 57.7337V65.4784H66.9777V42.8924H71.4661V44.8054C72.6309 43.3655 74.3279 42.6455 76.5571 42.6455ZM75.7437 55.7898C76.9487 55.7898 77.9327 55.3784 78.6958 54.5556C79.4791 53.7123 79.8706 52.5912 79.8706 51.1924C79.8706 49.7937 79.4791 48.6828 78.6958 47.8601C77.9327 47.0166 76.9487 46.595 75.7437 46.595C74.5388 46.595 73.5447 47.0166 72.7614 47.8601C71.9983 48.6828 71.6167 49.7937 71.6167 51.1924C71.6167 52.5912 71.9983 53.7123 72.7614 54.5556C73.5447 55.3784 74.5388 55.7898 75.7437 55.7898Z" fill="black"/>
<path d="M63.4055 51.2542C63.4055 51.3158 63.3754 51.7478 63.3152 52.55H51.0547C51.2756 53.5786 51.7977 54.3911 52.6211 54.9876C53.4445 55.5841 54.4687 55.8825 55.6938 55.8825C56.5372 55.8825 57.2803 55.759 57.923 55.5122C58.5857 55.2447 59.1982 54.8334 59.7605 54.278L62.2608 57.0549C60.7345 58.8445 58.5053 59.7393 55.5733 59.7393C53.7458 59.7393 52.1291 59.3794 50.7233 58.6594C49.3175 57.9188 48.2331 56.9006 47.4699 55.6047C46.7068 54.3087 46.3252 52.8381 46.3252 51.1924C46.3252 49.5674 46.6968 48.1069 47.4398 46.811C48.2029 45.4945 49.2372 44.4763 50.5426 43.7563C51.8681 43.0158 53.3441 42.6455 54.9708 42.6455C56.5573 42.6455 57.9932 42.9952 59.2785 43.6946C60.5638 44.3939 61.568 45.402 62.2909 46.7184C63.034 48.0143 63.4055 49.5262 63.4055 51.2542ZM55.0009 46.2865C53.9365 46.2865 53.0429 46.595 52.3199 47.212C51.5969 47.8292 51.1551 48.6726 50.9945 49.7422H58.9773C58.8167 48.6931 58.3749 47.8601 57.6518 47.2429C56.9289 46.6053 56.0452 46.2865 55.0009 46.2865Z" fill="black"/>
<path d="M43.145 42.8926V59.4926H38.4457V46.8421H31.6978V59.4926H27.0287V42.8926H43.145Z" fill="black"/>
<path d="M12.0934 59.8627C9.90438 59.8627 7.92624 59.3792 6.15897 58.4125C4.41178 57.4457 3.03612 56.1189 2.03199 54.4321C1.04793 52.7248 0.555908 50.8118 0.555908 48.6931C0.555908 46.5744 1.04793 44.6716 2.03199 42.9849C3.03612 41.2775 4.41178 39.9405 6.15897 38.9736C7.92624 38.0069 9.90438 37.5234 12.0934 37.5234C14.2824 37.5234 16.2505 38.0069 17.9976 38.9736C19.7449 39.9405 21.1205 41.2775 22.1247 42.9849C23.1288 44.6716 23.6309 46.5744 23.6309 48.6931C23.6309 50.8118 23.1288 52.7248 22.1247 54.4321C21.1205 56.1189 19.7449 57.4457 17.9976 58.4125C16.2505 59.3792 14.2824 59.8627 12.0934 59.8627ZM12.0934 55.6047C13.3385 55.6047 14.4632 55.3166 15.4672 54.7408C16.4714 54.1442 17.2546 53.3214 17.8169 52.2722C18.3994 51.2232 18.6905 50.0301 18.6905 48.6931C18.6905 47.356 18.3994 46.163 17.8169 45.1139C17.2546 44.0648 16.4714 43.2522 15.4672 42.6764C14.4632 42.0798 13.3385 41.7816 12.0934 41.7816C10.8483 41.7816 9.72365 42.0798 8.71951 42.6764C7.71537 43.2522 6.92211 44.0648 6.33971 45.1139C5.7774 46.163 5.49624 47.356 5.49624 48.6931C5.49624 50.0301 5.7774 51.2232 6.33971 52.2722C6.92211 53.3214 7.71537 54.1442 8.71951 54.7408C9.72365 55.3166 10.8483 55.6047 12.0934 55.6047Z" fill="black"/>
<path d="M99.3972 5.08203C101.908 5.08203 103.835 5.69913 105.181 6.93334C106.527 8.14699 107.199 9.98801 107.199 12.4564V21.929H102.801V19.8617C101.918 21.4045 100.271 22.1758 97.8608 22.1758C96.6158 22.1758 95.5313 21.9599 94.6075 21.5279C93.7037 21.0959 93.0109 20.4994 92.5289 19.7383C92.0469 18.9771 91.8059 18.1132 91.8059 17.1465C91.8059 15.6036 92.3682 14.39 93.4929 13.5055C94.6376 12.621 96.3949 12.1788 98.7646 12.1788H102.5C102.5 11.1297 102.189 10.3274 101.566 9.77202C100.944 9.19606 100.01 8.90808 98.7646 8.90808C97.901 8.90808 97.0476 9.05207 96.204 9.34006C95.3807 9.60746 94.6777 9.97773 94.0954 10.4508L92.4084 7.08762C93.2921 6.44994 94.3464 5.95626 95.5714 5.60657C96.8166 5.25687 98.0918 5.08203 99.3972 5.08203ZM99.0357 18.9361C99.839 18.9361 100.552 18.7509 101.174 18.3807C101.797 17.9898 102.239 17.4241 102.5 16.6836V14.9866H99.2766C97.3488 14.9866 96.3848 15.6345 96.3848 16.9305C96.3848 17.5475 96.6158 18.0413 97.0776 18.4114C97.5596 18.7611 98.2123 18.9361 99.0357 18.9361Z" fill="black"/>
<path d="M88.5824 5.33008V21.9302H83.883V9.27956H78.7619L78.6113 12.2109C78.531 14.3912 78.3302 16.2014 78.0088 17.6413C77.6875 19.0813 77.1653 20.2127 76.4424 21.0354C75.7193 21.8582 74.7153 22.2696 73.4299 22.2696C72.7471 22.2696 71.9338 22.1462 70.9899 21.8994L71.2309 17.9499C71.5522 17.991 71.7832 18.0116 71.9238 18.0116C72.6267 18.0116 73.1488 17.7544 73.4902 17.2402C73.8517 16.7054 74.0927 16.0369 74.2132 15.2347C74.3337 14.4118 74.424 13.3319 74.4843 11.9949L74.7252 5.33008H88.5824Z" fill="black"/>
<path d="M61.1547 22.1758C59.4478 22.1758 57.9115 21.8158 56.5458 21.0959C55.2002 20.3554 54.1459 19.3371 53.3828 18.0413C52.6197 16.7453 52.238 15.2745 52.238 13.6289C52.238 11.9834 52.6197 10.5126 53.3828 9.21663C54.1459 7.92071 55.2002 6.91277 56.5458 6.19282C57.9115 5.45229 59.4478 5.08203 61.1547 5.08203C62.8618 5.08203 64.3881 5.45229 65.7337 6.19282C67.0791 6.91277 68.1335 7.92071 68.8967 9.21663C69.6598 10.5126 70.0414 11.9834 70.0414 13.6289C70.0414 15.2745 69.6598 16.7453 68.8967 18.0413C68.1335 19.3371 67.0791 20.3554 65.7337 21.0959C64.3881 21.8158 62.8618 22.1758 61.1547 22.1758ZM61.1547 18.2264C62.3597 18.2264 63.3437 17.815 64.1069 16.9921C64.8901 16.1488 65.2818 15.0278 65.2818 13.6289C65.2818 12.2301 64.8901 11.1194 64.1069 10.2966C63.3437 9.45319 62.3597 9.0315 61.1547 9.0315C59.9498 9.0315 58.9557 9.45319 58.1725 10.2966C57.3892 11.1194 56.9977 12.2301 56.9977 13.6289C56.9977 15.0278 57.3892 16.1488 58.1725 16.9921C58.9557 17.815 59.9498 18.2264 61.1547 18.2264Z" fill="black"/>
<path d="M41.8755 15.6357H39.4354V21.9302H34.7361V5.33008H39.4354V11.7788H41.9658L46.3639 5.33008H51.3645L45.7012 13.2907L51.7561 21.9302H46.2133L41.8755 15.6357Z" fill="black"/>
<path d="M29.8662 0.332031V21.9307H2.03162V0.332031H6.88158V17.8579H13.539V0.332031H18.3889V17.8579H25.0162V0.332031H29.8662Z" fill="black"/>
</svg>
