<svg width="936" height="394" viewBox="0 0 936 394" fill="none" xmlns="http://www.w3.org/2000/svg">
<path fill-rule="evenodd" clip-rule="evenodd" d="M0 33C0 14.7746 14.7746 0 33 0H149C167.225 0 182 14.7746 182 33V47C182 51.4183 185.582 55 190 55H357C361.418 55 365 51.4183 365 47V33C365 14.7746 379.775 0 398 0H528C546.225 0 561 14.7746 561 33V47C561 51.4183 564.582 55 569 55H729C733.418 55 737 51.4183 737 47V33C737 14.7746 751.775 0 770 0H903C921.225 0 936 14.7746 936 33V306C936 324.225 921.225 339 903 339H751C746.582 339 743 342.582 743 347V361C743 379.225 728.225 394 710 394H577C558.775 394 544 379.225 544 361V347C544 342.582 540.418 339 536 339H382C377.582 339 374 342.582 374 347V361C374 379.225 359.225 394 341 394H208C189.775 394 175 379.225 175 361V347C175 342.582 171.418 339 167 339H33C14.7746 339 0 324.225 0 306V33Z" fill="#1A1A1A"/>
</svg>
